<?xml version="1.0" encoding="UTF-8" standalone="no"?>
<!DOCTYPE svg PUBLIC "-//W3C//DTD SVG 1.1//EN" "http://www.w3.org/Graphics/SVG/1.1/DTD/svg11.dtd">
<svg width="100%" height="100%" viewBox="0 0 189 169" version="1.1" xmlns="http://www.w3.org/2000/svg" xmlns:xlink="http://www.w3.org/1999/xlink" xml:space="preserve" xmlns:serif="http://www.serif.com/" style="fill-rule:evenodd;clip-rule:evenodd;stroke-linejoin:round;stroke-miterlimit:2;">
    <g transform="matrix(1,0,0,1,-241.448,-654.87)">
        <g transform="matrix(1,0,0,1,10.5302,35.419)">
            <path d="M327.947,706.267L338.233,706.267L338.233,726.637L312.974,726.637L312.974,787.79L358.348,787.79C348.063,779.47 341.764,766.803 341.764,751.625C341.764,729.667 354.945,712.965 374.309,707.077L374.25,707.077L369.66,693.442L332.265,693.442L327.947,706.267ZM276.081,706.267L253.02,673.192L246.945,680.752L246.945,707.077L230.918,707.077L230.918,787.79L289.616,787.79L289.616,726.637L264.222,726.637L264.222,706.267L276.081,706.267ZM414.824,751.625C414.824,766.291 405.182,777.834 390.244,777.834C375.17,777.834 365.529,766.291 365.529,751.625C365.529,736.822 375.17,725.415 390.244,725.415C405.182,725.415 414.824,736.822 414.824,751.625ZM419.651,713.619L419.651,619.451L366.389,619.451L398.87,705.421C406.687,706.621 413.736,709.453 419.651,713.619ZM301.231,619.451L335.404,619.451L303.317,704.719L268.275,659.152L301.231,619.451ZM350.895,637.282L363.585,673.867L338.34,673.867L350.895,637.282ZM246.945,654.022L246.945,619.451L272.809,619.451L246.945,654.022Z"/>
        </g>
    </g>
</svg>
